<svg fill="none" height="118" viewBox="0 0 111 118" width="111" xmlns="http://www.w3.org/2000/svg" xmlns:xlink="http://www.w3.org/1999/xlink"><filter id="a" color-interpolation-filters="sRGB" filterUnits="userSpaceOnUse" height="7" width="7" x="99.5" y="4.5"><feFlood flood-opacity="0" result="BackgroundImageFix"/><feBlend in="SourceGraphic" in2="BackgroundImageFix" mode="normal" result="shape"/><feGaussianBlur result="effect1_foregroundBlur" stdDeviation=".25"/></filter><filter id="b" color-interpolation-filters="sRGB" filterUnits="userSpaceOnUse" height="7" width="7" x="93.5" y="10.5"><feFlood flood-opacity="0" result="BackgroundImageFix"/><feBlend in="SourceGraphic" in2="BackgroundImageFix" mode="normal" result="shape"/><feGaussianBlur result="effect1_foregroundBlur" stdDeviation=".25"/></filter><filter id="c" color-interpolation-filters="sRGB" filterUnits="userSpaceOnUse" height="7" width="4.67948" x="99.5" y="10.5"><feFlood flood-opacity="0" result="BackgroundImageFix"/><feBlend in="SourceGraphic" in2="BackgroundImageFix" mode="normal" result="shape"/><feGaussianBlur result="effect1_foregroundBlur" stdDeviation=".25"/></filter><filter id="d" color-interpolation-filters="sRGB" filterUnits="userSpaceOnUse" height="5.73708" width="6.99989" x="99.5" y="10.5"><feFlood flood-opacity="0" result="BackgroundImageFix"/><feBlend in="SourceGraphic" in2="BackgroundImageFix" mode="normal" result="shape"/><feGaussianBlur result="effect1_foregroundBlur" stdDeviation=".25"/></filter><filter id="e" color-interpolation-filters="sRGB" filterUnits="userSpaceOnUse" height="7" width="7" x="93.5" y="4.5"><feFlood flood-opacity="0" result="BackgroundImageFix"/><feBlend in="SourceGraphic" in2="BackgroundImageFix" mode="normal" result="shape"/><feGaussianBlur result="effect1_foregroundBlur" stdDeviation=".25"/></filter><filter id="f" color-interpolation-filters="sRGB" filterUnits="userSpaceOnUse" height="52.5" width="20.4241" x=".07666" y="6.5"><feFlood flood-opacity="0" result="BackgroundImageFix"/><feBlend in="SourceGraphic" in2="BackgroundImageFix" mode="normal" result="shape"/><feGaussianBlur result="effect1_foregroundBlur" stdDeviation=".5"/></filter><filter id="g" color-interpolation-filters="sRGB" filterUnits="userSpaceOnUse" height="53" width="19.5" x="29.5" y="6"><feFlood flood-opacity="0" result="BackgroundImageFix"/><feBlend in="SourceGraphic" in2="BackgroundImageFix" mode="normal" result="shape"/><feGaussianBlur result="effect1_foregroundBlur" stdDeviation=".5"/></filter><filter id="h" color-interpolation-filters="sRGB" filterUnits="userSpaceOnUse" height="11.9228" width="27" x="40" y="105.5"><feFlood flood-opacity="0" result="BackgroundImageFix"/><feBlend in="SourceGraphic" in2="BackgroundImageFix" mode="normal" result="shape"/><feGaussianBlur result="effect1_foregroundBlur" stdDeviation=".5"/></filter><filter id="i" color-interpolation-filters="sRGB" filterUnits="userSpaceOnUse" height="41.7186" width="9.66208" x="16.1201" y="61.9294"><feFlood flood-opacity="0" result="BackgroundImageFix"/><feBlend in="SourceGraphic" in2="BackgroundImageFix" mode="normal" result="shape"/><feGaussianBlur result="effect1_foregroundBlur" stdDeviation=".5"/></filter><filter id="j" color-interpolation-filters="sRGB" filterUnits="userSpaceOnUse" height="74" width="8.52746" x="64.4722" y="29"><feFlood flood-opacity="0" result="BackgroundImageFix"/><feBlend in="SourceGraphic" in2="BackgroundImageFix" mode="normal" result="shape"/><feGaussianBlur result="effect1_foregroundBlur" stdDeviation=".5"/></filter><radialGradient id="k" cx="0" cy="0" gradientTransform="matrix(8.00003068 7.50003146 -7.50003146 8.00003068 100 11)" gradientUnits="userSpaceOnUse" r="1"><stop offset=".62369"/><stop offset="1" stop-color="#4f4f4f"/></radialGradient><linearGradient id="l" gradientUnits="userSpaceOnUse" x1="100" x2="100" y1="4" y2="18"><stop offset=".681482"/><stop offset="1" stop-color="#c4c4c4"/></linearGradient><radialGradient id="m" cx="0" cy="0" gradientTransform="matrix(-6.99997573 5.00004212 -5.00004212 -6.99997573 100 11)" gradientUnits="userSpaceOnUse" r="1"><stop offset=".336085"/><stop offset="1" stop-color="#c4c4c4"/></radialGradient><linearGradient id="n"><stop offset="0" stop-color="#2e2d2d"/><stop offset="1" stop-color="#a09e9e" stop-opacity="0"/></linearGradient><linearGradient id="o" gradientUnits="userSpaceOnUse" x1="105" x2="100" xlink:href="#n" y1="5" y2="17"/><linearGradient id="p" gradientUnits="userSpaceOnUse" x1="100" x2="100" xlink:href="#n" y1="17" y2="5"/><linearGradient id="q" gradientUnits="userSpaceOnUse" x1="106" x2="94" y1="11" y2="11"><stop offset=".244241" stop-color="#2e2d2d"/><stop offset=".586471" stop-color="#fff"/></linearGradient><linearGradient id="r" gradientUnits="userSpaceOnUse" x1="106" x2="94" y1="11" y2="11"><stop offset="0"/><stop offset="1" stop-color="#a2c2ef" stop-opacity="0"/></linearGradient><linearGradient id="s" gradientUnits="userSpaceOnUse" x1="94" x2="103.5" y1="11" y2="12.5"><stop offset="0" stop-color="#fff"/><stop offset=".617976" stop-color="#2e2d2d"/></linearGradient><linearGradient id="t"><stop offset=".183751" stop-color="#fff"/><stop offset=".457926" stop-color="#2e2d2d"/></linearGradient><linearGradient id="u" gradientUnits="userSpaceOnUse" x1="2.65421" x2="-.171428" xlink:href="#t" y1="2.09134" y2="1.50588"/><linearGradient id="v"><stop offset="0" stop-color="#2e2d2d"/><stop offset=".848642" stop-color="#181b2a"/></linearGradient><linearGradient id="w" gradientUnits="userSpaceOnUse" x1="10.4556" x2="10.4556" xlink:href="#v" y1="7" y2="58"/><linearGradient id="x" gradientUnits="userSpaceOnUse" x1="10.0255" x2="-1.55535" y1="31.2647" y2="31.2647"><stop offset=".685333" stop-color="#fff"/><stop offset="1" stop-color="#2e2d2d"/></linearGradient><linearGradient id="y" gradientUnits="userSpaceOnUse" x1="35.109" x2="32.2834" xlink:href="#t" y1="8.16832" y2="7.58286"/><linearGradient id="z" gradientUnits="userSpaceOnUse" x1="38.5" x2="38.5" xlink:href="#v" y1="7" y2="58"/><linearGradient id="A" gradientUnits="userSpaceOnUse" x1="39.5" x2="50.5" y1="31" y2="31"><stop offset=".183751" stop-color="#fff"/><stop offset="1" stop-color="#2e2d2d"/></linearGradient><linearGradient id="B" gradientUnits="userSpaceOnUse" x1="116" x2="-.92892" y1="72.5" y2="63.6489"><stop offset=".319711"/><stop offset="1" stop-color="#2e2d2d"/></linearGradient><linearGradient id="C"><stop offset="0" stop-color="#4f4f4f"/><stop offset=".591251" stop-color="#2e2d2d"/></linearGradient><linearGradient id="D" gradientUnits="userSpaceOnUse" x1="29.8537" x2="29.0301" xlink:href="#C" y1="4.58638" y2="9.51807"/><linearGradient id="E" gradientUnits="userSpaceOnUse" x1="19.4823" x2="20.5161" xlink:href="#C" y1="4.73836" y2="9.61472"/><linearGradient id="F" gradientUnits="userSpaceOnUse" x1="90.914" x2="92.9223" y1="14.4419" y2="17.5537"><stop offset="0" stop-color="#4f4f4f"/><stop offset=".14939" stop-color="#e9e9e9"/><stop offset=".342772" stop-color="#c6c2c2"/><stop offset=".503002" stop-color="#4f4f4f"/><stop offset=".685333" stop-color="#c4c4c4"/><stop offset=".856613" stop-color="#e9e9e9"/><stop offset="1" stop-color="#4f4f4f"/></linearGradient><circle cx="100" cy="11" fill="url(#k)" r="11"/><circle cx="100" cy="11" fill="#c4c4c4" r="10"/><circle cx="100" cy="11" fill="url(#l)" r="7.5" stroke="url(#m)"/><circle cx="100" cy="11" fill="#c4c4c4" r="6"/><g filter="url(#a)"><path d="m106 11c0-.7879-.155-1.56815-.457-2.2961-.301-.72795-.743-1.38939-1.3-1.94654-.558-.55715-1.219-.99911-1.947-1.30064s-1.508-.45672-2.296-.45672v6z" fill="url(#o)"/></g><g filter="url(#b)"><path d="m94 11c0 .7879.1552 1.5681.4567 2.2961.3016.728.7435 1.3894 1.3007 1.9465.5571.5572 1.2185.9991 1.9465 1.3007.728.3015 1.5082.4567 2.2961.4567v-6z" fill="url(#p)"/></g><g filter="url(#c)"><path d="m100 17c1.332 0 2.627-.4435 3.679-1.2607l-3.679-4.7393z" fill="url(#q)"/></g><g filter="url(#d)"><path d="m103.682 15.7371c.717-.5572 1.298-1.2698 1.7-2.084.401-.8143.612-1.709.618-2.6169l-6-.0362z" fill="url(#r)"/></g><g filter="url(#e)"><path d="m100 5c-.7879 0-1.5681.15519-2.2961.45672s-1.3894.74349-1.9465 1.30064c-.5572.55715-.9991 1.21859-1.3007 1.94654-.3015.72795-.4567 1.5082-.4567 2.2961h6z" fill="url(#s)"/></g><ellipse fill="url(#u)" rx=".6" ry="1.6" transform="matrix(-.978255 .207405 .130442 .991456 16.3219 8.01058)"/><path d="m16.9959 7v2s-.0533-1.13719-6.4991 1.5001c-21.9968 8.9999 9.969 47.4999 9.969 47.4999h-3.5001s-27.584-36.7441-11.46573-47c5.50043-3.49985 11.49593-4 11.49593-4z" fill="url(#w)"/><g filter="url(#f)"><path d="m17 7.5.0007.5s-1.0542-.63727-7.49999 2c-21.99681 8.9999 9.99999 48 9.99999 48h-1.0001s-28.6189-36.7441-12.5006-47c5.5004-3.49985 11-3.5 11-3.5z" fill="url(#x)"/></g><ellipse cx="33.0548" cy="7.67698" fill="url(#y)" rx=".6" ry="1.6" transform="matrix(.98633821 .16473293 -.16473293 .98633821 1.716239 -5.340333)"/><path d="m32.9 7v2s-.5979-1.12098 5.5365 1.5001c21.0635 8.9999-9.4365 47.4999-9.4365 47.4999h3.2816s26.2449-36.7441 10.9091-47c-5.2334-3.49985-10.2907-4-10.2907-4z" fill="url(#z)"/><g filter="url(#g)"><path d="m32.9 7 .1 1s.3656-.62106 6.5 2c21.0635 8.9999-9 48-9 48h1.7816s26.2449-36.7441 10.9091-47c-5.2334-3.49985-10.2907-4-10.2907-4z" fill="url(#A)"/></g><path d="m19.5 62.5c-3.7382-4.5689-9-13.5-9-13.5l4.5-1s2.9362 5.7734 6.0048 8c1.1506.8348 2.1332 1 3.5 1 .9763 0 1.6075-.444 2.5-1 3.3022-2.0572 7.9962-9.5 7.9962-9.5l3.999 2s-5.5 7-9.5 14c-7.5325 13.1819-10.5 30.7-2.5 41.7 9.3055 12.795 26.4165 10.063 34.8.9 21.5-23.5-12.9196-61.4617 14.2024-80.6 2.7909-1.9693 12.5-8.5 12.5-8.5l2 3s-9.0712 5.5778-12 8.25c-24.7976 22.6252 10.7701 48.5832-12.9987 81.25-8.0037 11-30.5037 12.5-41.4037-.5-12.0542-14.3766-.1-40-4.6-45.5z" fill="url(#B)"/><path d="m27.3895 4.54662c1.6519-.80567 3.3643 1.10261 3.3643 1.10261 1.382-.1363 1.2241-.13309 2.4626.41123-.666.9702-.8417 2.02229-.5271 3.15626-1.4325.17058-1.1619.22206-2.4626-.41123 0 0-2.2395 1.24811-3.54-.05052-1.3006-1.29858-.9491-3.40267.7028-4.20835z" fill="url(#D)"/><path d="m21.9145 4.59643c-1.6035-.74724-3.3548 1.25477-3.3548 1.25477-1.3588-.08092-1.2032-.08418-2.4426.51783.6254.95443.7646 2.01198.4174 3.17263 1.4076.11353 1.139.17679 2.4427-.51782 0 0 2.1686 1.17076 3.4938-.19723 1.3252-1.36794 1.0469-3.48295-.5565-4.23018z" fill="url(#E)"/><path d="m93.2986 12.9989c.2002 1 1.2002 2.5 1.9002 3.0856l-4.7 2.9144-1.9989-2.999z" fill="url(#F)"/><g filter="url(#h)"><path d="m41 115.5c5 1.5 16.5 1 25-9v.5c-7.5 10-20 10-25 9z" fill="#fff"/></g><g filter="url(#i)"><path d="m22.0001 63c-.0001 5-5.0001 30.5.0014 39.5h-.5c-5.5015-9 .4985-34.5-.5-39.5002z" fill="#fff"/></g><g filter="url(#j)"><path d="m70.9996 30h1s-4.3412 4.5557-5.4996 11.5c-2.2874 13.7126 3.4996 28 3.9997 42.5.2746 7.9628-4.4998 18-4.4998 18h-.5002s4.4998-9.9728 4.5-18c.0003-15-6.3678-27.875-3.9997-42 1.1641-6.9434 4.9996-12 4.9996-12z" fill="#fff"/></g></svg>